HIERARCHY
ROOT pelvis
{
	OFFSET 0.000000 0.000000 0.892315
	CHANNELS 6 Xposition Yposition Zposition Xrotation Yrotation Zrotation
	JOINT spine
	{
		OFFSET 0.000000 0.000000 0.000000
		CHANNELS 6 Xposition Yposition Zposition Xrotation Yrotation Zrotation
		JOINT spine.001
		{
			OFFSET 0.000000 -0.015374 0.293356
			CHANNELS 3 Xrotation Yrotation Zrotation
			JOINT neck
			{
				OFFSET 0.000000 0.035800 0.291569
				CHANNELS 6 Xposition Yposition Zposition Xrotation Yrotation Zrotation
				JOINT face
				{
					OFFSET 0.000000 0.003868 0.221603
					CHANNELS 6 Xposition Yposition Zposition Xrotation Yrotation Zrotation
					End Site
					{
						OFFSET 0.000000 -0.028344 -0.009001
					}
				}
			}
			JOINT shoulder.L
			{
				OFFSET 0.000000 0.035800 0.291569
				CHANNELS 6 Xposition Yposition Zposition Yrotation Xrotation Zrotation
				JOINT upper_arm.L
				{
					OFFSET 0.189779 0.000000 0.000000
					CHANNELS 6 Xposition Yposition Zposition Xrotation Yrotation Zrotation
					JOINT forearm.L
					{
						OFFSET 0.316302 0.000133 0.001101
						CHANNELS 6 Xposition Yposition Zposition Xrotation Yrotation Zrotation
						End Site
						{
							OFFSET 0.263547 -0.004478 -0.001515
						}
					}
				}
			}
			JOINT shoulder.R
			{
				OFFSET 0.000000 0.035800 0.291569
				CHANNELS 6 Xposition Yposition Zposition Yrotation Xrotation Zrotation
				JOINT upper_arm.R
				{
					OFFSET -0.189779 0.000000 0.000000
					CHANNELS 6 Xposition Yposition Zposition Xrotation Yrotation Zrotation
					JOINT forearm.R
					{
						OFFSET -0.310039 0.000133 0.001101
						CHANNELS 6 Xposition Yposition Zposition Xrotation Yrotation Zrotation
						End Site
						{
							OFFSET -0.266022 -0.004522 -0.001515
						}
					}
				}
			}
		}
	}
	JOINT pelvis.L
	{
		OFFSET 0.000000 0.000000 0.000000
		CHANNELS 6 Xposition Yposition Zposition Yrotation Xrotation Zrotation
		End Site
		{
			OFFSET 0.114049 0.000000 0.000000
		}
	}
	JOINT pelvis.R
	{
		OFFSET 0.000000 0.000000 0.000000
		CHANNELS 6 Xposition Yposition Zposition Yrotation Xrotation Zrotation
		End Site
		{
			OFFSET -0.114049 0.000000 0.000000
		}
	}
	JOINT thigh.L
	{
		OFFSET 0.114049 0.000000 0.000000
		CHANNELS 6 Xposition Yposition Zposition Xrotation Yrotation Zrotation
		JOINT shin.L
		{
			OFFSET 0.022107 0.000000 -0.421827
			CHANNELS 6 Xposition Yposition Zposition Xrotation Yrotation Zrotation
			JOINT foot.L
			{
				OFFSET 0.020520 0.000000 -0.391546
				CHANNELS 3 Xrotation Yrotation Zrotation
				End Site
				{
					OFFSET 0.017548 -0.178926 -0.075134
				}
			}
			JOINT heel.02.L
			{
				OFFSET 0.020520 0.000000 -0.391546
				CHANNELS 3 Xrotation Yrotation Zrotation
				End Site
				{
					OFFSET 0.098963 0.039582 -0.072746
				}
			}
		}
	}
	JOINT thigh.R
	{
		OFFSET -0.114049 0.000000 0.000000
		CHANNELS 6 Xposition Yposition Zposition Xrotation Yrotation Zrotation
		JOINT shin.R
		{
			OFFSET -0.022509 0.000000 -0.429490
			CHANNELS 6 Xposition Yposition Zposition Xrotation Yrotation Zrotation
			JOINT foot.R
			{
				OFFSET -0.020231 0.000000 -0.386038
				CHANNELS 3 Xrotation Yrotation Zrotation
				End Site
				{
					OFFSET -0.017830 -0.181801 -0.076341
				}
			}
			JOINT heel.02.R
			{
				OFFSET -0.020231 0.000000 -0.386038
				CHANNELS 3 Xrotation Yrotation Zrotation
				End Site
				{
					OFFSET -0.096127 0.039582 -0.070734
				}
			}
		}
	}
}
MOTION
Frames: 8
Frame Time: 0.041667
-0.014756 -0.061753 0.906959 -0.000000 0.000000 47.164113 0.000000 -0.000000 0.000000 -7.174541 0.089412 0.010328 8.618246 4.182342 36.552782 0.000000 0.035800 0.291569 18.360114 8.653158 46.458896 -0.000000 0.003868 0.221603 -14.785005 0.000001 -0.000006 -0.000000 0.035800 0.291569 -5.850960 0.036650 0.717156 0.189779 0.000000 -0.000000 -18.881313 89.180933 19.099424 0.316302 0.000133 0.001101 0.129164 1.577880 -12.675904 -0.000000 0.035800 0.291569 -5.799348 0.036007 0.710878 -0.189779 -0.000000 0.000000 47.398207 -70.892302 63.240353 -0.310039 0.000133 0.001101 5.631018 -20.314246 29.620468 0.000000 -0.000000 -0.000000 2.738835 -0.000001 0.000020 0.000000 -0.000000 -0.000000 2.738806 -0.000000 0.000002 0.113919 -0.000000 -0.005450 -18.445011 2.148486 -0.626826 0.022107 0.000000 -0.421827 23.897013 -7.201165 2.787029 28.454307 10.033462 -49.219176 -2.126244 27.959396 20.000394 -0.113919 0.000000 0.005450 13.234579 -8.314416 0.270583 -0.022509 0.000000 -0.429490 -0.881480 -0.355305 0.043475 -3.367993 12.967863 -26.721568 -26.796425 -53.385069 -45.757783 
-0.008720 -0.061793 0.905756 -0.000000 0.000000 45.388366 -0.000000 -0.000000 0.000000 -7.147061 0.011392 0.001308 8.711628 4.053652 35.252187 -0.000000 0.035800 0.291569 19.822082 8.070811 46.468977 0.000000 0.003868 0.221603 -13.713952 0.000001 0.000002 -0.000000 0.035800 0.291569 -5.845442 0.036583 0.716523 0.189779 -0.000000 0.000000 0.033693 87.751818 -0.082582 0.316302 0.000133 0.001101 0.008489 0.637478 -12.637164 -0.000000 0.035800 0.291569 -5.793750 0.035939 0.710213 -0.189779 0.000000 0.000000 45.216467 -70.900075 60.572399 -0.310039 0.000133 0.001101 4.667322 -17.668533 28.409649 0.000000 0.000000 0.000000 3.168596 0.000001 -0.000017 0.000000 0.000000 0.000000 3.168598 0.000000 -0.000002 0.113875 -0.000000 -0.006304 -16.962737 2.076021 -0.586477 0.022107 0.000000 -0.421827 23.121906 -6.989677 2.651112 24.620332 11.207885 -48.095890 -1.790003 27.078439 19.408068 -0.113874 0.000000 0.006304 13.631076 -7.641868 0.197628 -0.022509 -0.000000 -0.429490 -1.166400 -0.663652 0.054397 -4.468004 12.394590 -24.739188 -25.351647 -52.698355 -44.822061 
-0.003684 -0.062542 0.903566 0.000000 0.000000 43.224111 0.000000 0.000000 0.000000 -7.097527 -0.038056 -0.004364 8.782355 3.952025 34.239923 0.000000 0.035800 0.291569 22.004757 7.205793 45.887765 0.000000 0.003868 0.221603 -12.471382 -0.000002 0.000003 -0.000000 0.035800 0.291569 -6.051028 0.039198 0.741630 0.189779 0.000000 -0.000000 -2.838675 87.113544 2.936691 0.316302 0.000133 0.001101 0.043091 0.930166 -11.449965 -0.000000 0.035800 0.291569 -5.999396 0.038532 0.735325 -0.189779 -0.000000 -0.000000 40.183150 -70.785041 54.417008 -0.310039 0.000133 0.001101 4.571086 -16.877099 29.214731 0.000000 0.000000 0.000000 3.403595 -0.000001 0.000031 0.000000 0.000000 0.000000 3.403596 0.000000 -0.000000 0.113848 0.000000 -0.006771 -15.358631 1.689181 -0.582431 0.022107 0.000000 -0.421827 22.207650 -6.291467 2.407374 20.661196 12.179057 -46.232294 -1.712689 26.987899 19.413269 -0.113848 0.000000 0.006771 13.879469 -6.997592 0.122204 -0.022509 0.000000 -0.429490 -1.222389 -0.808464 0.055469 -5.358168 11.706052 -22.748087 -24.056768 -52.061775 -44.051773 
0.000960 -0.062521 0.900880 -0.000000 0.000000 40.219702 -0.000000 0.000000 -0.000000 -6.927166 0.073874 0.008365 8.861995 3.832525 33.065257 0.000000 0.035800 0.291569 23.966068 5.714758 45.778537 -0.000000 0.003868 0.221603 -10.794253 -0.000001 0.000001 0.000000 0.035800 0.291569 -6.366473 0.043387 0.780101 0.189779 0.000000 -0.000000 -2.707494 87.031240 2.803037 0.316302 0.000133 0.001101 0.157621 2.081291 -9.802444 -0.000000 0.035800 0.291569 -6.314778 0.042685 0.773803 -0.189779 -0.000000 -0.000000 34.369068 -70.270038 47.388556 -0.310039 0.000133 0.001101 5.143758 -17.816902 31.078351 0.000000 -0.000000 -0.000000 3.421925 -0.000000 0.000005 0.000000 -0.000000 -0.000000 3.421926 -0.000000 0.000002 0.113846 0.000000 -0.006808 -13.919168 1.373513 -0.565760 0.022107 -0.000000 -0.421827 21.796735 -5.568922 2.223432 16.081462 12.944011 -43.345914 -1.994211 27.711063 19.886190 -0.113845 0.000000 0.006807 13.805827 -6.116799 0.014223 -0.022509 0.000000 -0.429490 -0.856433 -1.006615 0.037380 -6.232788 10.844944 -20.488845 -22.670340 -51.356377 -43.281372 
0.006270 -0.061358 0.898156 0.000000 0.000000 36.613509 0.000000 0.000000 0.000000 -6.655701 0.370282 0.041064 8.998970 3.613939 30.956784 0.000000 0.035800 0.291569 25.023306 4.327393 45.976131 0.000000 0.003868 0.221603 -8.647185 0.000004 -0.000009 0.000000 0.035800 0.291570 -6.351375 0.043182 0.778274 0.189779 0.000000 -0.000000 0.462960 86.754898 -0.537502 0.316302 0.000133 0.001101 0.163764 2.331735 -8.470439 0.000000 0.035800 0.291570 -6.299806 0.042483 0.771980 -0.189779 -0.000000 -0.000000 31.119052 -69.516354 43.670782 -0.310039 0.000133 0.001101 5.721119 -18.888601 32.513808 0.000000 -0.000000 0.000000 3.334695 0.000000 0.000005 0.000000 -0.000000 0.000000 3.334696 0.000000 -0.000002 0.113856 0.000000 -0.006634 -12.746814 1.423904 -0.512076 0.022107 0.000000 -0.421827 21.994237 -5.095832 2.152678 11.109303 13.299961 -39.522097 -2.546808 28.821855 20.474942 -0.113856 0.000000 0.006634 13.438798 -4.965148 -0.122483 -0.022509 -0.000000 -0.429490 -0.137706 -1.398885 0.005541 -7.280912 9.884638 -17.998940 -21.104236 -50.492996 -42.278215 
0.012180 -0.061128 0.895455 -0.000000 0.000000 32.489533 0.000000 0.000000 0.000000 -6.451882 0.726212 0.079232 9.171018 3.310657 28.106850 0.000000 0.035800 0.291569 25.139401 4.147775 45.701185 -0.000000 0.003868 0.221603 -6.485857 0.000003 -0.000011 -0.000000 0.035800 0.291569 -5.778577 0.035747 0.708266 0.189779 -0.000000 -0.000000 10.838690 86.279482 -11.604131 0.316302 0.000133 0.001101 0.053697 1.167835 -7.593964 0.000000 0.035800 0.291569 -5.726960 0.035113 0.701964 -0.189779 -0.000000 -0.000000 31.403209 -68.897320 44.508272 -0.310039 0.000133 0.001101 5.827950 -19.005515 32.906660 0.000000 0.000000 0.000000 3.266098 0.000002 -0.000063 0.000000 0.000000 0.000000 3.266100 0.000000 -0.000003 0.113864 0.000000 -0.006498 -11.431326 1.502907 -0.450960 0.022107 0.000000 -0.421827 22.034448 -4.469402 2.035452 6.297476 13.009606 -34.920599 -3.169905 30.122295 21.271828 -0.113864 0.000000 0.006498 12.996586 -3.676184 -0.265620 -0.022509 -0.000000 -0.429490 0.672221 -1.897751 -0.024122 -8.520056 8.702043 -15.073645 -19.263220 -49.336878 -40.751992 
0.017326 -0.063872 0.892674 -0.000000 0.000000 27.921960 0.000000 0.000000 -0.000000 -6.520491 1.023410 0.112271 9.310706 3.035085 25.583790 0.000000 0.035800 0.291569 25.231750 4.874423 44.055970 -0.000000 0.003868 0.221603 -4.868245 0.000001 -0.000005 0.000000 0.035800 0.291569 -5.028993 0.027079 0.616671 0.189779 -0.000000 0.000000 31.959838 85.085948 -34.688652 0.316302 0.000133 0.001101 -0.028954 0.166963 -7.390279 0.000000 0.035800 0.291569 -4.977313 0.026527 0.610356 -0.189779 0.000000 -0.000000 32.984920 -68.543168 46.901014 -0.310039 0.000133 0.001101 5.631815 -18.468495 32.772375 0.000000 0.000000 0.000000 3.235146 -0.000001 0.000022 0.000000 0.000000 0.000000 3.235117 -0.000000 -0.000002 0.113867 -0.000000 -0.006436 -9.526886 1.264810 -0.395265 0.022107 0.000000 -0.421827 21.099031 -3.386396 1.746424 2.117044 12.058474 -29.955594 -3.781343 31.657408 22.517057 -0.113867 0.000000 0.006436 12.670165 -2.464089 -0.393570 -0.022509 0.000000 -0.429490 1.326133 -2.282402 -0.043130 -9.699339 7.177667 -11.659112 -17.258358 -47.881067 -38.741557 
0.020742 -0.068776 0.889890 -0.000000 0.000000 23.475510 0.000000 -0.000000 -0.000000 -6.900073 1.232758 0.139371 9.372268 2.903312 24.396538 0.000000 0.035800 0.291569 26.720038 5.006540 40.024089 0.000000 0.003868 0.221603 -4.431215 0.000002 -0.000005 0.000000 0.035800 0.291569 -4.807522 0.024750 0.589604 0.189779 0.000000 0.000000 41.701327 82.507012 -46.955611 0.316302 0.000133 0.001101 0.017592 0.729032 -8.426400 0.000000 0.035800 0.291569 -4.755809 0.024221 0.583285 -0.189779 0.000000 -0.000000 32.536672 -68.450428 46.371158 -0.310039 0.000133 0.001101 5.399341 -17.687806 32.879646 0.000000 -0.000000 0.000000 3.190339 -0.000001 0.000034 0.000000 -0.000000 0.000000 3.190310 -0.000000 -0.000002 0.113872 -0.000000 -0.006347 -7.186490 0.913542 -0.319886 0.022107 -0.000000 -0.421827 19.293727 -2.202123 1.393694 -1.298792 10.769824 -25.353946 -4.438939 33.305823 24.007917 -0.113872 0.000000 0.006347 12.498933 -1.510367 -0.492583 -0.022509 0.000000 -0.429490 1.695711 -2.407225 -0.053302 -10.475891 5.506225 -8.252113 -15.494648 -46.413256 -36.754552 
